<?xml version="1.0" encoding="UTF-8"?>
<svg xmlns="http://www.w3.org/2000/svg"
    xmlns:xlink="http://www.w3.org/1999/xlink" width="3200" height="3200" viewBox="0 0 3200 3200">

    <g transform="translate(-6870, -7800) scale(1.2)" transform-origin="center" fill="none" stroke="orange" stroke-width="60">
        <path d="M6880 8709 c-30 -5 -57 -14 -61 -21 -4 -6 -10 -41 -13 -77 -4 -36 -9 -86 -12 -111 l-6 -45 -85 -41 -85 -41 -96 58 c-53 33 -102 59 -108 59 -7 0 -40 -30 -73 -66 l-61 -67 22 -36 c12 -20 41 -65 65 -100 l44 -63 -39 -92 -39 -91 -57 -6 c-31 -4 -84 -12 -116 -19 -55 -12 -60 -15 -65 -44 -4 -17 -5 -60 -3 -96 l3 -64 85 -28 c47 -15 95 -27 108 -28 25 0 29 -7 63 -122 l22 -78 -49 -52 c-27 -29 -63 -70 -78 -91 l-29 -37 26 -39 c15 -22 40 -55 57 -75 30 -34 32 -35 68 -21 20 7 71 28 112 47 l76 35 33 -28 c19 -15 53 -38 77 -51 l43 -23 3 -124 3 -125 65 -17 c104 -28 116 -26 142 24 12 23 35 69 50 102 30 66 17 61 168 79 l55 7 68 -86 c37 -47 74 -88 81 -91 8 -3 50 13 94 35 l79 40 -8 49 c-5 26 -18 79 -28 118 l-20 69 67 70 c37 38 72 69 77 68 6 0 43 -8 83 -17 40 -9 90 -16 111 -16 37 0 39 2 64 58 44 99 44 104 -5 146 -24 21 -67 52 -96 69 -48 29 -52 35 -47 61 3 16 5 62 5 102 0 53 4 74 13 74 19 0 188 101 194 116 3 8 -6 49 -19 92 l-24 77 -125 -2 -125 -2 -17 28 c-9 15 -33 49 -55 75 l-38 49 34 84 c18 46 36 98 39 116 4 29 1 35 -39 63 -23 17 -58 39 -77 48 -38 20 -31 24 -146 -86 l-61 -58 -78 20 c-44 11 -87 20 -96 20 -11 0 -20 15 -28 48 -7 26 -25 77 -39 115 -26 66 -27 67 -62 66 -20 -1 -61 -5 -91 -10z m216 -490 c89 -16 162 -55 230 -123 218 -218 156 -565 -125 -704 -72 -36 -79 -37 -180 -37 -86 0 -116 5 -161 23 -245 98 -350 382 -228 614 72 136 221 230 379 237 14 0 52 -4 85 -10z"/>
    </g>

    <g transform="translate(-1100, +400) scale(1.8)">
        <path fill="black" d="M 1787.449219 802.121094 L 1243.671875 1051.269531 L 1780.410156 1277.921875 L 2069.78125 1154.011719 C 2074.871094 1151.941406 2077.738281 1152.898438 2077.75 1156.878906 L 2077.75 1306.289062 L 2071.058594 1338.898438 L 2075.039062 1338.898438 L 2077.429688 1330.160156 L 2079.898438 1338.898438 L 2101.5 1338.898438 L 2094.800781 1308.371094 L 2094.800781 1152.078125 C 2094.800781 1149.210938 2093.441406 1146.5 2091.058594 1144.890625 L 2091.148438 1144.890625 C 2090.441406 1144.480469 2089.621094 1144.179688 2088.988281 1143.878906 L 1842.539062 1028.878906 C 1834.390625 1025.199219 1836.699219 1013.050781 1845.628906 1012.601562 C 1847.050781 1012.511719 1848.46875 1012.828125 1849.761719 1013.449219 L 2108.039062 1133.96875 C 2109.238281 1134.511719 2110.300781 1135.328125 2111.128906 1136.339844 L 2309.539062 1051.390625 L 1787.460938 802.121094 Z M 2051.769531 1193.890625 L 1780.410156 1310.078125 L 1527.628906 1203.351562 L 1527.628906 1408.601562 C 1680.289062 1531.648438 1937.910156 1512.730469 2051.769531 1406.179688 L 2051.769531 1193.890625 "/>
    </g>

</svg>
